<svg xmlns="http://www.w3.org/2000/svg" version="1.1" xmlns:xlink="http://www.w3.org/1999/xlink" width="1000" height="1000"><g clip-path="url(#SvgjsClipPath1126)"><rect width="1000" height="1000" fill="#000000"></rect><g transform="matrix(0.9259259259259259,0,0,0.9259259259259259,0,0)"><svg xmlns="http://www.w3.org/2000/svg" version="1.1" xmlns:xlink="http://www.w3.org/1999/xlink" width="1080" height="1080"><svg width="1080" height="1080" viewBox="0 0 1080 1080" fill="none" xmlns="http://www.w3.org/2000/svg">
<rect x="0.5" y="0.5" width="1079" height="1079" rx="199.5" fill="black"></rect>
<rect x="0.5" y="0.5" width="1079" height="1079" rx="199.5" stroke="black"></rect>
<path d="M98 260H218V820H98V260Z" fill="white"></path>
<path d="M877 700V820H198V700H877Z" fill="white"></path>
<path d="M982 740C982 784.183 946.183 820 902 820H862V260H902C946.183 260 982 295.817 982 340V740Z" fill="white"></path>
<path d="M198 380V260L877 260V380L198 380Z" fill="white"></path>
</svg></svg></g></g><defs><clipPath id="SvgjsClipPath1126"><rect width="1000" height="1000" x="0" y="0" rx="200" ry="200"></rect></clipPath></defs></svg>